<svg width="512" height="512" viewBox="0 0 512 512" fill="none" xmlns="http://www.w3.org/2000/svg">
  <rect width="512" height="512" rx="64" fill="#1e40af"/>
  <path d="M128 160C128 142.327 142.327 128 160 128H352C369.673 128 384 142.327 384 160V352C384 369.673 369.673 384 352 384H160C142.327 384 128 369.673 128 352V160Z" fill="white" fill-opacity="0.9"/>
  <path d="M192 224C192 206.327 206.327 192 224 192H288C305.673 192 320 206.327 320 224V288C320 305.673 305.673 320 288 320H224C206.327 320 192 305.673 192 288V224Z" fill="#1e40af"/>
  <circle cx="256" cy="256" r="32" fill="white"/>
</svg>